HIERARCHY
ROOT hip
{
  OFFSET 0 0 0
  CHANNELS 6 Xposition Yposition Zposition Zrotation Yrotation Xrotation
  JOINT abdomen
  {
    OFFSET 0 20.6881 -0.73152
    CHANNELS 3 Zrotation Xrotation Yrotation
    JOINT chest
    {
      OFFSET 0 11.7043 -0.48768
      CHANNELS 3 Zrotation Xrotation Yrotation
      JOINT neck
      {
        OFFSET 0 22.1894 -2.19456
        CHANNELS 3 Zrotation Xrotation Yrotation
        JOINT head
        {
          OFFSET -0.24384 7.07133 1.2192
          CHANNELS 3 Zrotation Xrotation Yrotation
          JOINT leftEye
          {
            OFFSET 4.14528 8.04674 8.04672
            CHANNELS 3 Zrotation Xrotation Yrotation
            End Site
            {
              OFFSET 1 0 0
            }
          }
          JOINT rightEye
          {
            OFFSET -3.6576 8.04674 8.04672
            CHANNELS 3 Zrotation Xrotation Yrotation
            End Site
            {
              OFFSET 1 0 0
            }
          }
        }
      }
      JOINT rCollar
      {
        OFFSET -2.68224 19.2634 -4.8768
        CHANNELS 3 Zrotation Xrotation Yrotation
        JOINT rShldr
        {
          OFFSET -8.77824 -1.95073 1.46304
          CHANNELS 3 Zrotation Xrotation Yrotation
          JOINT rForeArm
          {
            OFFSET -28.1742 -1.7115 0.48768
            CHANNELS 3 Zrotation Xrotation Yrotation
            JOINT rHand
            {
              OFFSET -22.5879 0.773209 7.07136
              CHANNELS 3 Zrotation Xrotation Yrotation
              JOINT rThumb1
              {
                OFFSET -1.2192 -0.487915 3.41376
                CHANNELS 3 Zrotation Xrotation Yrotation
                JOINT rThumb2
                {
                  OFFSET -3.37035 -0.52449 3.41376
                  CHANNELS 3 Zrotation Xrotation Yrotation
                  End Site
                  {
                    OFFSET -1.78271 -1.18214 1.43049
                  }
                }
              }
              JOINT rIndex1
              {
                OFFSET -7.75947 0.938293 5.60832
                CHANNELS 3 Zrotation Xrotation Yrotation
                JOINT rIndex2
                {
                  OFFSET -2.54057 -0.884171 1.56538
                  CHANNELS 3 Zrotation Xrotation Yrotation
                  End Site
                  {
                    OFFSET -1.62519 -0.234802 1.16502
                  }
                }
              }
              JOINT rMid1
              {
                OFFSET -8.24714 1.18213 3.41376
                CHANNELS 3 Zrotation Xrotation Yrotation
                JOINT rMid2
                {
                  OFFSET -3.10165 -0.590103 1.0647
                  CHANNELS 3 Zrotation Xrotation Yrotation
                  End Site
                  {
                    OFFSET -2.48547 -0.328903 0.83742
                  }
                }
              }
              JOINT rRing1
              {
                OFFSET -8.82822 0.546677 1.51678
                CHANNELS 3 Zrotation Xrotation Yrotation
                JOINT rRing2
                {
                  OFFSET -2.60934 -0.819778 -0.0198488
                  CHANNELS 3 Zrotation Xrotation Yrotation
                  End Site
                  {
                    OFFSET -2.33842 -0.294052 0.168128
                  }
                }
              }
              JOINT rPinky1
              {
                OFFSET -8.27202 -0.0477905 -0.4584
                CHANNELS 3 Zrotation Xrotation Yrotation
                JOINT rPinky2
                {
                  OFFSET -1.82734 -0.647385 -0.700984
                  CHANNELS 3 Zrotation Xrotation Yrotation
                  End Site
                  {
                    OFFSET -1.69225 -0.51767 -0.607171
                  }
                }
              }
            }
          }
        }
      }
      JOINT lCollar
      {
        OFFSET 2.68224 19.2634 -4.8768
        CHANNELS 3 Zrotation Xrotation Yrotation
        JOINT lShldr
        {
          OFFSET 8.77824 -1.95073 1.46304
          CHANNELS 3 Zrotation Xrotation Yrotation
          JOINT lForeArm
          {
            OFFSET 28.1742 -1.7115 0.48768
            CHANNELS 3 Zrotation Xrotation Yrotation
            JOINT lHand
            {
              OFFSET 22.5879 0.773209 7.07136
              CHANNELS 3 Zrotation Xrotation Yrotation
              JOINT lThumb1
              {
                OFFSET 1.2192 -0.487915 3.41376
                CHANNELS 3 Zrotation Xrotation Yrotation
                JOINT lThumb2
                {
                  OFFSET 3.37035 -0.52449 3.41376
                  CHANNELS 3 Zrotation Xrotation Yrotation
                  End Site
                  {
                    OFFSET 1.78271 -1.18214 1.43049
                  }
                }
              }
              JOINT lIndex1
              {
                OFFSET 7.75947 0.938293 5.60832
                CHANNELS 3 Zrotation Xrotation Yrotation
                JOINT lIndex2
                {
                  OFFSET 2.54057 -0.884171 1.56538
                  CHANNELS 3 Zrotation Xrotation Yrotation
                  End Site
                  {
                    OFFSET 1.62519 -0.234802 1.16502
                  }
                }
              }
              JOINT lMid1
              {
                OFFSET 8.24714 1.18213 3.41376
                CHANNELS 3 Zrotation Xrotation Yrotation
                JOINT lMid2
                {
                  OFFSET 3.10165 -0.590103 1.0647
                  CHANNELS 3 Zrotation Xrotation Yrotation
                  End Site
                  {
                    OFFSET 2.48547 -0.328903 0.83742
                  }
                }
              }
              JOINT lRing1
              {
                OFFSET 8.82822 0.546677 1.51678
                CHANNELS 3 Zrotation Xrotation Yrotation
                JOINT lRing2
                {
                  OFFSET 2.60934 -0.819778 -0.0198488
                  CHANNELS 3 Zrotation Xrotation Yrotation
                  End Site
                  {
                    OFFSET 2.33842 -0.294052 0.168128
                  }
                }
              }
              JOINT lPinky1
              {
                OFFSET 8.27202 -0.0477905 -0.4584
                CHANNELS 3 Zrotation Xrotation Yrotation
                JOINT lPinky2
                {
                  OFFSET 1.82734 -0.647385 -0.700984
                  CHANNELS 3 Zrotation Xrotation Yrotation
                  End Site
                  {
                    OFFSET 1.69225 -0.51767 -0.607171
                  }
                }
              }
            }
          }
        }
      }
    }
  }
  JOINT rButtock
  {
    OFFSET -8.77824 4.35084 1.2192
    CHANNELS 3 Zrotation Xrotation Yrotation
    JOINT rThigh
    {
      OFFSET 0 -1.70687 -2.19456
      CHANNELS 3 Zrotation Xrotation Yrotation
      JOINT rShin
      {
        OFFSET 0 -36.8199 0.73152
        CHANNELS 3 Zrotation Xrotation Yrotation
        JOINT rFoot
        {
          OFFSET 0.73152 -45.1104 -5.12064
          CHANNELS 3 Zrotation Xrotation Yrotation
          End Site
          {
            OFFSET -1.1221 -3.69964 12.103
          }
        }
      }
    }
  }
  JOINT lButtock
  {
    OFFSET 8.77824 4.35084 1.2192
    CHANNELS 3 Zrotation Xrotation Yrotation
    JOINT lThigh
    {
      OFFSET 0 -1.70687 -2.19456
      CHANNELS 3 Zrotation Xrotation Yrotation
      JOINT lShin
      {
        OFFSET 0 -36.8199 0.73152
        CHANNELS 3 Zrotation Xrotation Yrotation
        JOINT lFoot
        {
          OFFSET -0.73152 -45.1104 -5.12064
          CHANNELS 3 Zrotation Xrotation Yrotation
          End Site
          {
            OFFSET 1.1221 -3.69964 12.103
          }
        }
      }
    }
  }
}
MOTION
Frames:	4
Frame Time:	0.03333
-1.698572904181467 41.694647316627304 -24.272256864015166 -160.11912536621094 78.08418273925781 -150.85516357421875 -2.332550048828125 14.446602821350098 17.19564437866211 -5.362607955932617 -13.617344856262207 4.091982364654541 1.2483997344970703 15.189265251159668 13.954015731811523 -0.18032467365264893 -20.497024536132812 26.71668243408203 -0.11171431839466095 -0.20680026710033417 -0.04813595116138458 0.10553748160600662 -0.11520378291606903 0.11175644397735596 0.017537007108330727 0.08723779767751694 0.22190503776073456 4.75053071975708 62.647132873535156 63.6570930480957 -26.202146530151367 -45.05826950073242 94.15872192382812 -0.28991037607192993 11.171582221984863 1.4297072887420654 -0.11565492302179337 -0.05739366635680199 -0.15089066326618195 -0.06396383047103882 0.008603151887655258 0.10060194134712219 -0.08255065977573395 -0.18837621808052063 -0.33560746908187866 7.741683006286621 5.499507427215576 0.5458056926727295 -0.04260267689824104 -0.08835276961326599 0.0968688502907753 3.106416940689087 0.8323594331741333 0.18169546127319336 0.13834092020988464 -0.06994076073169708 -0.07225921750068665 10.359197616577148 0.6196807622909546 -0.26503798365592957 0.09967230260372162 0.22536762058734894 0.3031705617904663 2.182556390762329 -0.831169843673706 -0.2228260338306427 0.18490010499954224 0.07211579382419586 0.07022764533758163 -55.923221588134766 -0.6062222123146057 -19.59602165222168 26.669713973999023 -44.494049072265625 -93.14057922363281 2.0540666580200195 -35.34886932373047 5.823788642883301 0.2171669602394104 0.2269471138715744 0.06184155121445656 -0.0022719837725162506 -0.11672227829694748 -0.017880164086818695 0.2681049406528473 0.002032917458564043 0.09233756363391876 -7.742070198059082 5.347968578338623 -0.445758581161499 -0.016636671498417854 -0.012500806711614132 0.11399785429239273 -2.745910882949829 1.0186731815338135 -0.1563408374786377 -0.1874796599149704 0.05361626669764519 0.00603932561352849 -10.535762786865234 0.9493154287338257 -0.14087927341461182 -0.03311893716454506 0.095547616481781 -0.1636994183063507 -2.5432870388031006 -0.6932502388954163 0.21569973230361938 -0.07363849878311157 -0.11368430405855179 0.24992114305496216 -79.55286407470703 -36.87944030761719 -61.013633728027344 -174.26165771484375 79.38813018798828 176.49319458007812 -0.36263519525527954 -24.409982681274414 -2.5000929832458496 -0.24231234192848206 -0.02504041977226734 0.09314018487930298 102.17926025390625 -50.390499114990234 80.18073272705078 173.97532653808594 76.91020202636719 -174.4019775390625 -9.583722114562988 -23.32221794128418 -13.96215534210205
-1.673209797111418 41.37630585979135 -24.367066399718997 -160.0059356689453 78.09992218017578 -151.0092315673828 -2.2728240489959717 14.465100288391113 17.20918846130371 -5.3915276527404785 -13.67658805847168 4.105398178100586 1.2357356548309326 15.180146217346191 13.994194030761719 -0.15436600148677826 -20.50677490234375 26.797056198120117 -0.11085329949855804 -0.2036813348531723 -0.05332605540752411 0.10046496242284775 -0.11788193881511688 0.11168718338012695 0.026668857783079147 0.084075927734375 0.23511840403079987 4.755092144012451 62.70951461791992 63.4491081237793 -26.191709518432617 -45.07699966430664 94.19395446777344 -0.2807767689228058 10.97269058227539 1.3743916749954224 -0.13285402953624725 -0.055662620812654495 -0.14584119617938995 -0.06560525298118591 0.007771044969558716 0.08963797986507416 -0.09439056366682053 -0.18150518834590912 -0.34530916810035706 7.741410255432129 5.5164899826049805 0.5584523677825928 -0.0551227331161499 -0.06962361186742783 0.08392882347106934 3.122248888015747 0.8136869668960571 0.16678640246391296 0.1403765082359314 -0.06454373151063919 -0.054626889526844025 10.35942268371582 0.6268882751464844 -0.2726287841796875 0.09105750173330307 0.23107075691223145 0.3235924541950226 2.183750629425049 -0.8433783650398254 -0.22472397983074188 0.1892312914133072 0.06434482336044312 0.08029883354902267 -55.909912109375 -0.4890713691711426 -19.7337703704834 26.667207717895508 -44.477996826171875 -93.12785339355469 2.050905466079712 -35.37737274169922 5.825024604797363 0.21506145596504211 0.22864465415477753 0.05512591078877449 -0.013891774229705334 -0.12533026933670044 -0.010760963894426823 0.2726174592971802 -0.012663054279983044 0.0863618329167366 -7.751014232635498 5.3625688552856445 -0.4603595435619354 -0.012154202908277512 -0.014307281002402306 0.11671191453933716 -2.756619453430176 1.0215781927108765 -0.14341945946216583 -0.1918674111366272 0.04806627333164215 -0.0010171126341447234 -10.539834976196289 0.9491539001464844 -0.15493328869342804 -0.02576061524450779 0.08850062638521194 -0.15559661388397217 -2.5328142642974854 -0.7039026021957397 0.2331230342388153 -0.0736158937215805 -0.10764031857252121 0.25071021914482117 -80.26734161376953 -36.75716018676758 -61.41767501831055 -174.56817626953125 78.85310363769531 176.82772827148438 -0.29960814118385315 -24.548192977905273 -2.3564529418945312 -0.2561110854148865 -0.035000383853912354 0.07645215839147568 103.11749267578125 -50.068389892578125 80.97722625732422 174.13034057617188 76.37918090820312 -174.52886962890625 -9.79374885559082 -23.266460418701172 -14.302399635314941
-1.6392365962623332 41.24436026540504 -24.449782818693052 -159.95050048828125 78.09773254394531 -151.23995971679688 -2.2074172496795654 14.483297348022461 17.176206588745117 -5.384941577911377 -13.702089309692383 4.108201503753662 1.172987937927246 15.16015625 13.922880172729492 -0.07739795744419098 -20.452125549316406 26.698442459106445 -0.11482030898332596 -0.20311473309993744 -0.05184897035360336 0.09042292088270187 -0.11724328994750977 0.11532088369131088 0.05315044894814491 0.06948306411504745 0.2507241666316986 4.724044322967529 62.63447570800781 63.298851013183594 -26.182104110717773 -45.07083511352539 94.1980209350586 -0.27368539571762085 10.873823165893555 1.3393398523330688 -0.1524445116519928 -0.0568980872631073 -0.15483726561069489 -0.0708264634013176 0.0015017233090475202 0.07790661603212357 -0.11230593919754028 -0.17496222257614136 -0.3581988513469696 7.740661144256592 5.530673503875732 0.566442608833313 -0.06883493810892105 -0.03595452755689621 0.06529891490936279 3.1391842365264893 0.7921997904777527 0.15293890237808228 0.14692829549312592 -0.05638425797224045 -0.0423840694129467 10.357098579406738 0.6318391561508179 -0.2925718426704407 0.07957448810338974 0.23735758662223816 0.35051947832107544 2.189342498779297 -0.8585954904556274 -0.22622546553611755 0.1881813406944275 0.051461588591337204 0.09793733060359955 -55.965003967285156 -0.2884819507598877 -19.777217864990234 26.67255973815918 -44.40285873413086 -93.036376953125 2.0497145652770996 -35.38440704345703 5.827920913696289 0.21009811758995056 0.24310462176799774 0.034812554717063904 -0.040002092719078064 -0.139389306306839 -0.0073152948170900345 0.2874142527580261 -0.027751145884394646 0.09001293778419495 -7.757604598999023 5.370728015899658 -0.4748479723930359 -0.015773659572005272 -0.020676027983427048 0.12301655858755112 -2.773099422454834 1.0134998559951782 -0.1400953233242035 -0.2051176279783249 0.054875146597623825 -0.02570084109902382 -10.543305397033691 0.9360776543617249 -0.16344402730464935 -0.0190449059009552 0.0873214602470398 -0.1570998728275299 -2.521845817565918 -0.7111151218414307 0.2451450079679489 -0.07298454642295837 -0.11081777513027191 0.25936755537986755 -80.84310150146484 -36.64746856689453 -61.714778900146484 -174.81263732910156 78.4521255493164 177.10491943359375 -0.25217685103416443 -24.595876693725586 -2.248126745223999 -0.27362507581710815 -0.04516737163066864 0.06338410824537277 103.9784164428711 -49.80867004394531 81.75375366210938 174.27865600585938 75.88800811767578 -174.6647491455078 -9.962876319885254 -23.21636390686035 -14.570353507995605
-1.5954609000155167 41.00089134225077 -24.524700975903954 -160.0966339111328 77.9666976928711 -151.20217895507812 -2.115654468536377 14.496316909790039 17.150760650634766 -5.410942554473877 -13.726322174072266 4.10565710067749 1.1239784955978394 15.136632919311523 13.867846488952637 -0.027266308665275574 -20.418107986450195 26.62680435180664 -0.12715061008930206 -0.20019246637821198 -0.044546838849782944 0.07510808855295181 -0.11434326320886612 0.12190032750368118 0.07831652462482452 0.05543242767453194 0.26558947563171387 4.4398579597473145 62.50222396850586 63.45907211303711 -26.173969268798828 -45.12736511230469 94.27668762207031 -0.2577933967113495 10.914012908935547 1.3328229188919067 -0.1704510599374771 -0.057881250977516174 -0.1644468903541565 -0.08469485491514206 -0.001793120289221406 0.06559181213378906 -0.12110252678394318 -0.17284990847110748 -0.36964160203933716 7.732304096221924 5.543025970458984 0.571413516998291 -0.08316634595394135 -0.005764994770288467 0.04675193130970001 3.149873971939087 0.7686747908592224 0.1389348804950714 0.1516929417848587 -0.05347616225481033 -0.026556028053164482 10.35264778137207 0.6324805617332458 -0.3166932761669159 0.06438588351011276 0.24140572547912598 0.37519386410713196 2.1975860595703125 -0.8689540028572083 -0.22967155277729034 0.17476680874824524 0.03562169894576073 0.10499589145183563 -56.069725036621094 -0.21350793540477753 -19.734678268432617 26.69199562072754 -44.360782623291016 -92.96163940429688 2.0331718921661377 -35.40966796875 5.831371784210205 0.21254412829875946 0.2593204975128174 0.014681767672300339 -0.0609285831451416 -0.1503523290157318 -0.017608661204576492 0.2988627254962921 -0.04020390287041664 0.09112521260976791 -7.759081840515137 5.373866558074951 -0.4845534563064575 -0.022388756275177002 -0.025558458641171455 0.12714767456054688 -2.7836785316467285 1.0064692497253418 -0.1373114287853241 -0.22053636610507965 0.0684923306107521 -0.046294789761304855 -10.534651756286621 0.9182794690132141 -0.1684117168188095 -0.020187832415103912 0.10241416841745377 -0.16045482456684113 -2.5162770748138428 -0.708290159702301 0.24873493611812592 -0.07033561915159225 -0.11837522685527802 0.2594464421272278 -81.41067504882812 -36.502925872802734 -62.001251220703125 -175.02264404296875 78.06254577636719 177.34912109375 -0.20679816603660583 -24.61037254333496 -2.1768901348114014 -0.2768375873565674 -0.047922637313604355 0.05232735350728035 104.93154907226562 -49.52195358276367 82.61321258544922 174.42518615722656 75.35880279541016 -174.80027770996094 -10.145938873291016 -23.169584274291992 -14.846502304077148
